<?xml version="1.0" standalone="no"?>
<!DOCTYPE svg PUBLIC "-//W3C//DTD SVG 20010904//EN"
 "http://www.w3.org/TR/2001/REC-SVG-20010904/DTD/svg10.dtd">
<svg version="1.0" xmlns="http://www.w3.org/2000/svg"
 width="181.000000pt" height="180.000000pt" viewBox="0 0 181.000000 180.000000"
 preserveAspectRatio="xMidYMid meet">
<metadata>
Created by potrace 1.16, written by Peter Selinger 2001-2019
</metadata>
<g transform="translate(0.000000,180.000000) scale(0.100000,-0.100000)"
fill="#000000" stroke="none">
<path d="M662 1705 c-182 -42 -208 -51 -181 -59 8 -2 28 -9 46 -14 23 -8 42
-7 73 4 35 12 53 13 103 3 58 -12 60 -13 32 -22 -17 -5 -37 -11 -45 -14 -20
-8 -87 -15 -130 -15 -93 1 -112 4 -166 22 l-59 19 -162 -36 -163 -37 0 -505
c0 -278 3 -549 6 -601 l7 -95 426 -158 c234 -86 435 -157 446 -157 10 0 209
68 442 152 l423 152 0 72 c0 39 3 104 6 145 l7 75 -50 10 -50 10 -12 -32 c-9
-26 -20 -34 -59 -45 -26 -7 -51 -12 -56 -11 -13 4 -79 -19 -96 -33 -16 -14
-78 -35 -113 -40 -34 -4 -107 -27 -107 -35 0 -9 -100 -44 -106 -37 -7 7 -73
-16 -134 -46 -56 -27 -101 -26 -163 1 l-49 22 4 74 3 74 -52 16 c-28 9 -55 16
-60 14 -4 -1 -34 7 -67 17 l-58 19 7 151 c4 82 8 151 10 153 2 2 52 -12 111
-31 l109 -34 3 79 c2 71 5 79 20 73 79 -30 91 -30 267 19 94 26 197 56 230 67
33 10 154 46 269 79 115 32 210 61 212 63 2 2 5 73 7 157 l2 154 -435 103
c-239 56 -453 102 -475 102 -22 -1 -122 -20 -223 -44z m314 -136 c105 -31 103
-29 62 -43 -29 -11 -48 -11 -98 0 -50 10 -71 10 -113 -1 -40 -10 -63 -11 -104
-2 -29 6 -53 14 -53 18 0 4 35 15 78 24 42 9 82 18 87 20 26 9 79 3 141 -16z
m289 -73 c40 -11 46 -15 30 -21 -62 -21 -62 -22 -15 -34 76 -20 78 -23 25 -37
-47 -12 -57 -11 -169 18 -66 18 -115 33 -109 35 16 6 177 51 183 52 3 0 28 -5
55 -13z m-985 -180 l45 -13 3 -158 c2 -135 0 -157 -12 -152 -8 3 -33 11 -55
17 l-41 11 0 154 c0 85 3 155 8 155 4 0 27 -6 52 -14z"/>
<path d="M1049 889 c-30 -11 -39 -33 -39 -98 0 -40 2 -43 23 -37 73 20 67 24
67 -43 0 -34 2 -61 4 -61 2 0 22 7 45 15 l41 14 0 -36 c0 -33 2 -35 25 -29 22
6 25 3 25 -19 0 -29 2 -29 55 -11 33 12 41 19 43 44 3 26 9 31 63 47 l59 18 0
94 c0 51 -4 93 -8 93 -4 0 -68 -18 -142 -41 -74 -22 -148 -45 -165 -50 -47
-14 -48 -13 -43 51 5 65 1 69 -53 49z"/>
</g>
</svg>
